<svg xmlns="http://www.w3.org/2000/svg" version="1.1" xmlns:xlink="http://www.w3.org/1999/xlink" width="195" height="195"><svg width="195" height="195" viewBox="0 0 195 195" fill="none" xmlns="http://www.w3.org/2000/svg">
<mask id="SvgjsMask1018" style="mask-type:alpha" maskUnits="userSpaceOnUse" x="0" y="0" width="195" height="195">
<circle cx="97.5" cy="97.5" r="97.5" fill="#D9D9D9"></circle>
</mask>
<g mask="url(#mask0_1_16)">
<rect x="-8" y="-8" width="212" height="212" fill="white"></rect>
<path d="M37.9815 71.1875C37.8622 70.7727 37.6946 70.4062 37.4787 70.0881C37.2628 69.7642 36.9986 69.4915 36.6861 69.2699C36.3793 69.0426 36.027 68.8693 35.6293 68.75C35.2372 68.6307 34.8026 68.571 34.3253 68.571C33.4332 68.571 32.6491 68.7926 31.973 69.2358C31.3026 69.679 30.7798 70.3239 30.4048 71.1705C30.0298 72.0114 29.8423 73.0398 29.8423 74.2557C29.8423 75.4716 30.027 76.5057 30.3963 77.358C30.7656 78.2102 31.2884 78.8608 31.9645 79.3097C32.6406 79.7528 33.4389 79.9744 34.3594 79.9744C35.1946 79.9744 35.9077 79.8267 36.4986 79.5312C37.0952 79.2301 37.5497 78.8068 37.8622 78.2614C38.1804 77.7159 38.3395 77.071 38.3395 76.3267L39.0895 76.4375H34.5895V73.6591H41.8935V75.858C41.8935 77.392 41.5696 78.7102 40.9219 79.8125C40.2741 80.9091 39.3821 81.7557 38.2457 82.3523C37.1094 82.9432 35.8082 83.2386 34.3423 83.2386C32.706 83.2386 31.2685 82.8778 30.0298 82.1562C28.7912 81.429 27.8253 80.3977 27.1321 79.0625C26.4446 77.7216 26.1009 76.1307 26.1009 74.2898C26.1009 72.875 26.3054 71.6136 26.7145 70.5057C27.1293 69.392 27.7088 68.4489 28.4531 67.6761C29.1974 66.9034 30.0639 66.3153 31.0526 65.9119C32.0412 65.5085 33.1122 65.3068 34.2656 65.3068C35.2543 65.3068 36.1747 65.4517 37.027 65.7415C37.8793 66.0256 38.6349 66.429 39.294 66.9517C39.9588 67.4744 40.5014 68.0966 40.9219 68.8182C41.3423 69.5341 41.6122 70.3239 41.7315 71.1875H37.9815ZM44.6655 83V65.5455H48.3558V79.9574H55.8388V83H44.6655ZM61.973 65.5455V83H58.2827V65.5455H61.973ZM64.3445 68.5881V65.5455H78.6797V68.5881H73.3359V83H69.6882V68.5881H64.3445ZM95.6442 71.6562H91.9112C91.843 71.1733 91.7038 70.7443 91.4936 70.3693C91.2834 69.9886 91.0135 69.6648 90.6839 69.3977C90.3544 69.1307 89.9737 68.9261 89.5419 68.7841C89.1158 68.642 88.6527 68.571 88.1527 68.571C87.2493 68.571 86.4624 68.7955 85.7919 69.2443C85.1214 69.6875 84.6016 70.3352 84.2322 71.1875C83.8629 72.0341 83.6783 73.0625 83.6783 74.2727C83.6783 75.517 83.8629 76.5625 84.2322 77.4091C84.6072 78.2557 85.13 78.8949 85.8004 79.3267C86.4709 79.7585 87.2464 79.9744 88.1271 79.9744C88.6214 79.9744 89.0788 79.9091 89.4993 79.7784C89.9254 79.6477 90.3033 79.4574 90.6328 79.2074C90.9624 78.9517 91.2351 78.642 91.451 78.2784C91.6726 77.9148 91.826 77.5 91.9112 77.0341L95.6442 77.0511C95.5476 77.8523 95.3061 78.625 94.9197 79.3693C94.5391 80.108 94.0249 80.7699 93.3771 81.3551C92.7351 81.9347 91.968 82.3949 91.076 82.7358C90.1896 83.071 89.1868 83.2386 88.0675 83.2386C86.5107 83.2386 85.1186 82.8864 83.8913 82.1818C82.6697 81.4773 81.7038 80.4574 80.9936 79.1222C80.2891 77.7869 79.9368 76.1705 79.9368 74.2727C79.9368 72.3693 80.2947 70.75 81.0107 69.4148C81.7266 68.0795 82.6982 67.0625 83.9254 66.3636C85.1527 65.6591 86.5334 65.3068 88.0675 65.3068C89.0788 65.3068 90.0163 65.4489 90.88 65.733C91.7493 66.017 92.5192 66.4318 93.1896 66.9773C93.8601 67.517 94.4055 68.179 94.826 68.9631C95.2521 69.7472 95.5249 70.6449 95.6442 71.6562ZM98.2905 83V65.5455H101.981V72.7472H109.472V65.5455H113.154V83H109.472V75.7898H101.981V83H98.2905ZM120.126 83L115.131 65.5455H119.163L122.052 77.6733H122.197L125.384 65.5455H128.836L132.015 77.6989H132.168L135.058 65.5455H139.089L134.094 83H130.498L127.174 71.5881H127.038L123.722 83H120.126ZM141.064 83V65.5455H152.825V68.5881H144.754V72.7472H152.22V75.7898H144.754V79.9574H152.859V83H141.064ZM155.759 83V65.5455H162.748C164.032 65.5455 165.103 65.7358 165.961 66.1165C166.819 66.4972 167.464 67.0256 167.896 67.7017C168.327 68.3722 168.543 69.1449 168.543 70.0199C168.543 70.7017 168.407 71.3011 168.134 71.8182C167.862 72.3295 167.487 72.75 167.009 73.0795C166.538 73.4034 165.998 73.6335 165.39 73.7699V73.9403C166.055 73.9687 166.677 74.1562 167.256 74.5028C167.842 74.8494 168.316 75.3352 168.68 75.9602C169.043 76.5795 169.225 77.3182 169.225 78.1761C169.225 79.1023 168.995 79.929 168.535 80.6562C168.08 81.3778 167.407 81.9489 166.515 82.3693C165.623 82.7898 164.523 83 163.217 83H155.759ZM159.45 79.983H162.458C163.487 79.983 164.237 79.7869 164.708 79.3949C165.18 78.9972 165.415 78.4687 165.415 77.8097C165.415 77.3267 165.299 76.9006 165.066 76.5312C164.833 76.1619 164.501 75.8722 164.069 75.6619C163.643 75.4517 163.134 75.3466 162.543 75.3466H159.45V79.983ZM159.45 72.8494H162.185C162.691 72.8494 163.14 72.7614 163.532 72.5852C163.93 72.4034 164.242 72.1477 164.469 71.8182C164.702 71.4886 164.819 71.0938 164.819 70.6335C164.819 70.0028 164.594 69.4943 164.146 69.108C163.702 68.7216 163.072 68.5284 162.254 68.5284H159.45V72.8494ZM37.4403 103.131C37.304 101.756 36.7188 100.687 35.6847 99.9261C34.6506 99.1648 33.2472 98.7841 31.4744 98.7841C30.2699 98.7841 29.2528 98.9545 28.4233 99.2955C27.5938 99.625 26.9574 100.085 26.5142 100.676C26.0824 101.267 25.8665 101.938 25.8665 102.688C25.8438 103.312 25.9744 103.858 26.2585 104.324C26.554 104.79 26.9574 105.193 27.4688 105.534C27.9801 105.864 28.571 106.153 29.2415 106.403C29.9119 106.642 30.6278 106.847 31.3892 107.017L34.5256 107.767C36.0483 108.108 37.446 108.562 38.7188 109.131C39.9915 109.699 41.0938 110.398 42.0256 111.227C42.9574 112.057 43.679 113.034 44.1903 114.159C44.7131 115.284 44.9801 116.574 44.9915 118.028C44.9801 120.165 44.4347 122.017 43.3551 123.585C42.2869 125.142 40.7415 126.352 38.7188 127.216C36.7074 128.068 34.2813 128.494 31.4403 128.494C28.6222 128.494 26.1676 128.062 24.0767 127.199C21.9972 126.335 20.3722 125.057 19.2017 123.364C18.0426 121.659 17.4347 119.551 17.3778 117.04H24.5199C24.5994 118.21 24.9347 119.187 25.5256 119.972C26.1278 120.744 26.929 121.33 27.929 121.727C28.9403 122.114 30.0824 122.307 31.3551 122.307C32.6051 122.307 33.6903 122.125 34.6108 121.761C35.5426 121.398 36.2642 120.892 36.7756 120.244C37.2869 119.597 37.5426 118.852 37.5426 118.011C37.5426 117.227 37.3097 116.568 36.8438 116.034C36.3892 115.5 35.7188 115.045 34.8324 114.67C33.9574 114.295 32.8835 113.955 31.6108 113.648L27.8097 112.693C24.8665 111.977 22.5426 110.858 20.8381 109.335C19.1335 107.812 18.2869 105.761 18.2983 103.182C18.2869 101.068 18.8494 99.2216 19.9858 97.642C21.1335 96.0625 22.7074 94.8295 24.7074 93.9432C26.7074 93.0568 28.9801 92.6136 31.5256 92.6136C34.1165 92.6136 36.3778 93.0568 38.3097 93.9432C40.2528 94.8295 41.7642 96.0625 42.8438 97.642C43.9233 99.2216 44.4801 101.051 44.5142 103.131H37.4403ZM49.956 128V93.0909H57.3366V107.494H72.3196V93.0909H79.6832V128H72.3196V113.58H57.3366V128H49.956ZM91.7855 128H83.8764L95.9276 93.0909H105.439L117.473 128H109.564L100.82 101.068H100.547L91.7855 128ZM91.2912 114.278H109.973V120.04H91.2912V114.278ZM121.675 128V93.0909H135.447C138.084 93.0909 140.334 93.5625 142.197 94.5057C144.072 95.4375 145.499 96.7614 146.476 98.4773C147.464 100.182 147.959 102.187 147.959 104.494C147.959 106.812 147.459 108.807 146.459 110.477C145.459 112.136 144.01 113.409 142.112 114.295C140.226 115.182 137.942 115.625 135.26 115.625H126.038V109.693H134.067C135.476 109.693 136.646 109.5 137.578 109.114C138.51 108.727 139.203 108.148 139.658 107.375C140.124 106.602 140.357 105.642 140.357 104.494C140.357 103.335 140.124 102.358 139.658 101.562C139.203 100.767 138.504 100.165 137.561 99.7557C136.629 99.3352 135.453 99.125 134.033 99.125H129.055V128H121.675ZM140.527 112.114L149.203 128H141.055L132.567 112.114H140.527ZM153.175 128V93.0909H176.697V99.1761H160.555V107.494H175.487V113.58H160.555V121.915H176.766V128H153.175Z" fill="black"></path>
</g>
</svg><style>@media (prefers-color-scheme: light) { :root { filter: none; } }
@media (prefers-color-scheme: dark) { :root { filter: none; } }
</style></svg>