<svg width="256" height="256" viewBox="0 0 256 256" fill="none" xmlns="http://www.w3.org/2000/svg">
<mask id="mask0_3_8" style="mask-type:alpha" maskUnits="userSpaceOnUse" x="0" y="0" width="256" height="256">
<circle cx="128" cy="128" r="128" fill="black"/>
</mask>
<g mask="url(#mask0_3_8)">
<rect width="256" height="256" fill="black"/>
<path d="M268.288 62.4285C256.57 54.4723 240.7 57.333 232.911 68.8047C225.276 80.0497 228.219 95.4388 239.374 103.537L231.793 114.703C220.15 107.323 204.761 110.265 197.126 121.51C189.337 132.982 192.532 148.787 204.25 156.743C215.968 164.699 231.837 161.838 239.626 150.367C241.75 147.24 243.03 143.789 243.571 140.265L263.804 140.634L263.377 146.114L248.344 145.093C247.886 145.062 247.487 145.412 247.451 145.872C247.427 146.182 247.573 146.461 247.81 146.622C247.925 146.701 248.065 146.748 248.217 146.76L264.078 147.837C264.172 147.843 264.266 147.828 264.355 147.803C265.068 155.144 268.965 162.181 275.612 166.694C287.329 174.65 303.199 171.79 310.988 160.318C318.777 148.846 315.581 133.041 303.863 125.085C297.414 120.706 289.712 119.622 282.787 121.429L276.963 109.234C276.765 108.818 276.268 108.648 275.853 108.853C275.439 109.056 275.263 109.558 275.461 109.972L281.169 121.921C279.424 122.503 277.742 123.266 276.157 124.221L267.419 105.089C270.519 103.284 273.276 100.808 275.412 97.6616C283.201 86.1899 280.005 70.3846 268.288 62.4285ZM266.404 65.2024C276.61 72.1318 279.42 85.858 272.67 95.7999C265.92 105.742 252.125 108.193 241.919 101.264C231.714 94.3344 228.903 80.6083 235.653 70.6664C242.404 60.7245 256.199 58.273 266.404 65.2024ZM263.577 68.4675C255.713 63.128 244.921 65.2564 239.519 73.2121C234.118 81.1678 236.121 91.9837 243.985 97.3231C251.849 102.663 262.639 100.533 268.04 92.5767C268.3 92.1939 268.203 91.6747 267.825 91.4178C267.447 91.1609 266.929 91.263 266.669 91.6459C261.787 98.8359 252.034 100.762 244.926 95.9362C237.819 91.1105 236.008 81.3331 240.89 74.143C245.772 66.9529 255.528 65.0289 262.635 69.8545C263.014 70.1114 263.532 70.0092 263.792 69.6264C264.052 69.2436 263.955 68.7244 263.577 68.4675ZM268.129 73.1373C267.862 72.9561 267.5 72.9403 267.21 73.1308C266.824 73.3835 266.711 73.9007 266.958 74.2856C268.44 76.6012 269.287 79.2906 269.406 82.0662C269.418 82.3377 269.559 82.5737 269.767 82.7152C269.91 82.812 270.087 82.8663 270.275 82.8543C270.734 82.8298 271.087 82.4365 271.067 81.9754C270.935 78.907 269.999 75.9331 268.357 73.3715C268.296 73.2755 268.218 73.1977 268.129 73.1373ZM301.98 127.859C312.186 134.788 314.996 148.514 308.246 158.456C301.496 168.398 287.701 170.85 277.495 163.92C267.289 156.991 264.479 143.265 271.229 133.323C277.979 123.381 291.774 120.929 301.98 127.859ZM265.954 105.899L274.742 125.153C272.354 126.825 270.214 128.918 268.487 131.461C266.87 133.843 265.755 136.416 265.063 139.062C264.959 139.014 264.845 138.983 264.727 138.981L243.791 138.598C244.525 129.96 240.729 121.126 233.164 115.634L240.721 104.503L244.834 107.296L237.771 117.698C237.511 118.081 237.608 118.6 237.986 118.857C238.364 119.114 238.882 119.012 239.142 118.629L246.676 107.533C246.724 107.463 246.746 107.386 246.77 107.308C253.196 109.361 260.099 108.801 265.954 105.899ZM299.259 132.027C291.395 126.688 280.606 128.818 275.204 136.774C269.802 144.729 271.803 155.544 279.667 160.883C287.531 166.222 298.323 164.094 303.724 156.138C303.984 155.756 303.888 155.236 303.51 154.979C303.131 154.723 302.613 154.825 302.353 155.208C297.472 162.398 287.716 164.322 280.609 159.496C273.501 154.67 271.693 144.895 276.575 137.705C281.457 130.515 291.21 128.589 298.317 133.414C298.696 133.671 299.214 133.569 299.474 133.186C299.734 132.803 299.638 132.284 299.259 132.027ZM303.811 136.697C303.544 136.516 303.182 136.5 302.892 136.691C302.506 136.943 302.391 137.463 302.638 137.848C304.123 140.163 304.971 142.854 305.09 145.628C305.101 145.901 305.241 146.134 305.449 146.275C305.593 146.373 305.768 146.427 305.955 146.417C306.415 146.392 306.772 145.998 306.752 145.537C306.622 142.47 305.681 139.493 304.039 136.931C303.978 136.835 303.9 136.758 303.811 136.697ZM230.619 117.908C240.824 124.837 243.635 138.563 236.885 148.505C230.134 158.447 216.339 160.898 206.134 153.969C195.928 147.04 193.118 133.313 199.868 123.372C206.618 113.43 220.413 110.978 230.619 117.908ZM228.034 120.815C220.17 115.476 209.378 117.604 203.977 125.56C198.575 133.515 200.578 144.331 208.442 149.671C216.306 155.01 227.096 152.881 232.497 144.924C232.757 144.541 232.661 144.022 232.282 143.765C231.904 143.508 231.386 143.611 231.126 143.993C226.244 151.184 216.491 153.109 209.384 148.284C202.276 143.458 200.466 133.681 205.348 126.491C210.229 119.3 219.985 117.376 227.092 122.202C227.471 122.459 227.989 122.357 228.249 121.974C228.509 121.591 228.413 121.072 228.034 120.815ZM232.586 125.485C232.319 125.304 231.957 125.288 231.667 125.478C231.281 125.731 231.166 126.251 231.413 126.636C232.896 128.951 233.744 131.638 233.863 134.414C233.875 134.685 234.016 134.921 234.224 135.063C234.367 135.16 234.543 135.215 234.73 135.205C235.19 135.18 235.544 134.784 235.525 134.323C235.393 131.255 234.456 128.281 232.814 125.719C232.753 125.623 232.675 125.545 232.586 125.485Z" fill="#B249F8" fill-opacity="0.16"/>
<path d="M50.651 186.225C37.058 189.867 28.9078 203.682 32.4819 217.021C35.9855 230.096 49.4739 237.905 62.8088 234.779L66.2877 247.763C53.1764 251.723 45.3993 265.229 48.9029 278.305C52.477 291.644 66.4428 299.533 80.0359 295.89C93.6289 292.248 101.779 278.433 98.2049 265.094C97.2307 261.458 95.4661 258.246 93.1655 255.543L106.579 240.545L110.425 244.437L99.8966 255.094C99.5761 255.418 99.5804 255.947 99.9031 256.274C100.121 256.494 100.426 256.566 100.701 256.492C100.834 256.456 100.961 256.382 101.069 256.275L112.175 245.031C112.241 244.964 112.29 244.884 112.33 244.801C118.316 249.046 126.14 250.695 133.851 248.629C147.444 244.987 155.594 231.172 152.02 217.833C148.446 204.494 134.48 196.605 120.887 200.247C113.405 202.252 107.59 207.346 104.453 213.739L91.4979 210.181C91.0561 210.059 90.6058 210.323 90.49 210.769C90.3738 211.213 90.6377 211.672 91.0774 211.793L103.773 215.278C103.078 216.971 102.56 218.734 102.25 220.551L82.1832 214.669C82.8375 211.158 82.7644 207.469 81.784 203.811C78.2099 190.472 64.2441 182.583 50.651 186.225ZM51.5153 189.45C63.3542 186.278 75.5057 193.103 78.6032 204.663C81.7007 216.223 74.5895 228.209 62.7507 231.381C50.9118 234.553 38.7602 227.729 35.6627 216.169C32.5652 204.609 39.6764 192.622 51.5153 189.45ZM52.1364 193.706C43.0139 196.151 37.6091 205.665 40.0878 214.916C42.5664 224.166 52.0042 229.703 61.1267 227.259C70.2492 224.814 75.6525 215.301 73.1722 206.051C73.0529 205.605 72.5999 205.34 72.1609 205.457C71.722 205.575 71.4625 206.032 71.5818 206.477C73.822 214.837 68.9391 223.437 60.6946 225.646C52.45 227.855 43.9183 222.85 41.6781 214.489C39.438 206.129 44.3239 197.528 52.5685 195.319C53.0074 195.202 53.2669 194.745 53.1476 194.3C53.0284 193.855 52.5753 193.589 52.1364 193.706ZM58.6048 193.32C58.2951 193.403 58.0484 193.665 58.0034 194.008C57.943 194.463 58.2584 194.886 58.7086 194.95C61.4131 195.342 63.9862 196.456 66.1513 198.175C66.3634 198.343 66.6325 198.391 66.8742 198.326C67.0396 198.281 67.1954 198.183 67.3087 198.034C67.5884 197.672 67.5213 197.15 67.1618 196.865C64.7676 194.965 61.9223 193.733 58.9292 193.301C58.8171 193.285 58.708 193.293 58.6048 193.32ZM121.751 203.473C133.59 200.3 145.741 207.125 148.839 218.685C151.936 230.245 144.825 242.231 132.986 245.404C121.147 248.576 108.996 241.751 105.898 230.191C102.801 218.631 109.912 206.645 121.751 203.473ZM81.8413 216.3L102.032 222.223C101.74 225.111 101.925 228.086 102.718 231.043C103.46 233.812 104.672 236.329 106.214 238.574C106.109 238.62 106.013 238.686 105.934 238.773L92.0544 254.292C86.0319 248.112 76.9215 245.216 67.8781 247.336L64.4101 234.394L69.1813 233.115L72.4223 245.211C72.5415 245.656 72.9946 245.922 73.4335 245.804C73.8725 245.686 74.1319 245.23 74.0127 244.785L70.5556 231.883C70.5336 231.801 70.4899 231.734 70.4474 231.665C76.1632 228.163 80.2233 222.599 81.8413 216.3ZM123.121 208.237C113.998 210.681 108.597 220.195 111.075 229.445C113.554 238.696 122.989 244.234 132.111 241.789C141.234 239.345 146.638 229.831 144.16 220.58C144.04 220.135 143.587 219.869 143.148 219.987C142.71 220.105 142.45 220.561 142.569 221.006C144.81 229.367 139.924 237.968 131.679 240.177C123.434 242.386 114.906 237.38 112.666 229.019C110.426 220.659 115.308 212.059 123.553 209.85C123.992 209.732 124.251 209.275 124.132 208.83C124.013 208.385 123.56 208.119 123.121 208.237ZM129.589 207.851C129.28 207.934 129.033 208.196 128.988 208.539C128.927 208.994 129.244 209.42 129.694 209.484C132.4 209.874 134.974 210.988 137.139 212.705C137.351 212.874 137.617 212.921 137.859 212.856C138.026 212.812 138.18 212.716 138.294 212.568C138.574 212.206 138.509 211.68 138.149 211.394C135.757 209.494 132.907 208.264 129.914 207.831C129.802 207.815 129.692 207.823 129.589 207.851ZM67.9362 250.734C79.7751 247.562 91.9267 254.387 95.0242 265.947C98.1217 277.507 91.0105 289.493 79.1716 292.665C67.3327 295.837 55.1812 289.013 52.0837 277.452C48.9862 265.892 56.0974 253.906 67.9362 250.734ZM68.4459 254.574C59.3234 257.019 53.9186 266.533 56.3973 275.783C58.876 285.034 68.3137 290.571 77.4362 288.127C86.5587 285.682 91.962 276.169 89.4817 266.919C89.3625 266.473 88.9094 266.208 88.4705 266.325C88.0315 266.443 87.7721 266.9 87.8913 267.345C90.1315 275.705 85.2487 284.305 77.0041 286.514C68.7595 288.723 60.2278 283.718 57.9877 275.357C55.7475 266.997 60.6334 258.396 68.878 256.187C69.317 256.07 69.5764 255.613 69.4571 255.168C69.3379 254.723 68.8848 254.457 68.4459 254.574ZM74.9143 254.188C74.6047 254.271 74.3579 254.533 74.3129 254.876C74.2525 255.331 74.5688 255.757 75.019 255.821C77.7235 256.213 80.2957 257.324 82.4609 259.043C82.6729 259.211 82.942 259.259 83.1837 259.194C83.3491 259.149 83.5053 259.053 83.619 258.905C83.8988 258.543 83.8309 258.018 83.4714 257.733C81.0772 255.833 78.2319 254.601 75.2387 254.169C75.1266 254.153 75.0176 254.161 74.9143 254.188Z" fill="#B249F8" fill-opacity="0.16"/>
<path d="M162.807 215C184.419 215 202 197.683 202 176.397C202 155.532 185.095 138.525 164.071 137.859L164.071 117.141C185.095 116.475 202 99.4681 202 78.603C202 57.3173 184.419 40 162.807 40C141.195 40 123.614 57.3173 123.614 78.6029C123.614 84.4053 124.955 89.8911 127.294 94.8333L101.435 111.813L97.2767 104.484L117.13 92.8177C117.734 92.4625 117.938 91.6735 117.589 91.0584C117.354 90.6441 116.93 90.415 116.493 90.415C116.28 90.415 116.063 90.4752 115.861 90.591L94.916 102.901C94.7921 102.974 94.6867 103.074 94.595 103.182C87.4029 94.4739 76.4523 88.8971 64.1929 88.8971C42.5812 88.8971 25 106.214 25 127.5C25 148.786 42.5812 166.103 64.1929 166.103C76.0877 166.103 86.7396 160.838 93.9332 152.572L111.737 163.037C112.344 163.395 113.117 163.182 113.465 162.564C113.814 161.949 113.606 161.16 113.001 160.805L95.5531 150.551C97.257 148.308 98.7265 145.889 99.9089 143.308L127.338 160.071C124.972 165.037 123.614 170.558 123.614 176.397C123.614 197.683 141.195 215 162.807 215ZM162.807 209.853C143.984 209.853 128.671 194.844 128.671 176.397C128.671 157.95 143.984 142.941 162.807 142.941C181.63 142.941 196.943 157.95 196.943 176.397C196.943 194.844 181.63 209.853 162.807 209.853ZM163.578 203.268C178.081 203.268 189.881 191.259 189.881 176.498C189.881 161.736 178.081 149.727 163.578 149.727C149.074 149.727 137.277 161.736 137.279 176.498C137.279 177.208 137.846 177.784 138.544 177.784C139.242 177.784 139.808 177.208 139.808 176.498C139.808 163.156 150.469 152.3 163.578 152.3C176.686 152.3 187.352 163.156 187.352 176.498C187.352 189.839 176.686 200.695 163.578 200.695C162.88 200.695 162.313 201.271 162.313 201.982C162.313 202.692 162.88 203.268 163.578 203.268ZM153.829 201.263C154.321 201.263 154.791 200.971 154.994 200.479C155.265 199.825 154.965 199.07 154.323 198.795C150.467 197.132 147.092 194.447 144.564 191.024C144.316 190.689 143.936 190.511 143.551 190.511C143.289 190.511 143.019 190.595 142.791 190.773C142.232 191.2 142.124 192.003 142.544 192.572C145.341 196.355 149.072 199.325 153.34 201.162C153.5 201.231 153.665 201.263 153.829 201.263ZM64.1929 160.956C45.3702 160.956 30.0572 145.947 30.0572 127.5C30.0572 109.053 45.3702 94.0441 64.1929 94.0441C83.0156 94.0441 98.3286 109.053 98.3286 127.5C98.3286 145.947 83.0156 160.956 64.1929 160.956ZM128.494 157.779L100.897 140.905C102.477 136.722 103.386 132.219 103.386 127.5C103.386 123.081 102.587 118.851 101.193 114.894C101.367 114.866 101.536 114.807 101.687 114.708L128.444 97.1404C134.922 108.743 147.285 116.689 161.543 117.141L161.543 137.794L153.957 137.794L153.957 118.493C153.957 117.782 153.391 117.206 152.693 117.206C151.995 117.206 151.429 117.782 151.429 118.493L151.429 139.081C151.429 139.212 151.467 139.329 151.503 139.448C141.632 142.383 133.398 149.046 128.494 157.779ZM64.0546 153.316C78.5585 153.316 90.3527 141.307 90.3527 126.545C90.3527 111.783 78.5585 99.7742 64.0546 99.7742C49.5507 99.7742 37.7515 111.783 37.7515 126.545C37.7515 127.255 38.3179 127.832 39.0158 127.832C39.7137 127.832 40.2801 127.255 40.2801 126.545C40.2801 113.204 50.9465 102.348 64.0546 102.348C77.1627 102.348 87.8242 113.204 87.8242 126.545C87.8242 139.886 77.1627 150.742 64.0546 150.742C63.3567 150.742 62.7903 151.319 62.7903 152.029C62.7903 152.739 63.3567 153.316 64.0546 153.316ZM54.3058 151.31C54.7981 151.31 55.2684 151.018 55.4713 150.526C55.7418 149.872 55.4419 149.113 54.7996 148.837C50.941 147.177 47.5645 144.492 45.036 141.071C44.7882 140.734 44.4128 140.559 44.0285 140.559C43.763 140.559 43.4955 140.64 43.268 140.815C42.7091 141.242 42.5963 142.051 43.0161 142.619C45.8102 146.403 49.5486 149.372 53.8168 151.21C53.9768 151.278 54.1416 151.31 54.3058 151.31ZM162.807 112.059C143.984 112.059 128.671 97.05 128.671 78.6029C128.671 60.1559 143.984 45.1471 162.807 45.1471C181.63 45.1471 196.943 60.1559 196.943 78.6029C196.943 97.05 181.63 112.059 162.807 112.059ZM163.578 106.138C178.081 106.138 189.881 94.1287 189.881 79.367C189.881 64.6052 178.081 52.5962 163.578 52.5962C149.074 52.5962 137.277 64.6052 137.279 79.367C137.279 80.0773 137.846 80.6537 138.544 80.6537C139.242 80.6537 139.808 80.0773 139.808 79.367C139.808 66.0258 150.469 55.1698 163.578 55.1698C176.686 55.1698 187.352 66.0258 187.352 79.367C187.352 92.7081 176.686 103.564 163.578 103.564C162.88 103.564 162.313 104.141 162.313 104.851C162.313 105.561 162.88 106.138 163.578 106.138ZM153.829 104.132C154.321 104.132 154.791 103.84 154.994 103.348C155.265 102.694 154.965 101.935 154.323 101.659C150.467 99.9967 147.092 97.3161 144.564 93.8933C144.316 93.5588 143.936 93.3806 143.552 93.3806C143.289 93.3806 143.019 93.462 142.791 93.637C142.232 94.0642 142.124 94.8727 142.544 95.4415C145.341 99.2246 149.072 102.194 153.34 104.032C153.5 104.1 153.665 104.132 153.829 104.132Z" fill="#B249F8"/>
<path d="M177.715 217.101C180.179 221.37 185.592 222.875 189.781 220.456C193.887 218.086 195.306 212.815 193.039 208.587L197.116 206.233C199.645 210.309 204.919 211.716 209.025 209.346C213.214 206.927 214.617 201.487 212.152 197.219C209.688 192.95 204.275 191.445 200.087 193.863C198.945 194.523 198.018 195.411 197.312 196.434L191.022 193.256L191.99 191.602L196.55 194.198C196.689 194.277 196.867 194.227 196.948 194.088C197.003 193.995 197 193.885 196.95 193.799C196.926 193.757 196.889 193.721 196.843 193.694L192.033 190.956C192.004 190.94 191.972 190.93 191.941 190.924C192.834 188.514 192.683 185.718 191.285 183.297C188.82 179.028 183.408 177.523 179.219 179.941C175.03 182.36 173.627 187.8 176.092 192.068C177.448 194.418 179.699 195.923 182.146 196.405L182.117 201.11C182.115 201.271 182.245 201.399 182.407 201.398C182.568 201.397 182.699 201.266 182.7 201.107L182.728 196.495C183.364 196.577 184.008 196.592 184.65 196.533L184.479 203.855C183.232 203.952 181.991 204.311 180.842 204.974C176.653 207.393 175.25 212.833 177.715 217.101ZM178.728 216.516C176.581 212.799 177.788 208.069 181.419 205.973C185.049 203.877 189.749 205.197 191.895 208.914C194.041 212.632 192.834 217.362 189.204 219.458C185.574 221.553 180.874 220.234 178.728 216.516ZM180.111 215.921C181.765 218.785 185.474 219.751 188.379 218.074C191.284 216.397 192.301 212.702 190.647 209.837C188.994 206.973 185.285 206.007 182.38 207.685C182.241 207.765 182.192 207.943 182.271 208.081C182.351 208.218 182.529 208.265 182.669 208.184C185.294 206.668 188.646 207.541 190.141 210.13C191.636 212.719 190.716 216.059 188.09 217.575C185.465 219.09 182.112 218.217 180.618 215.628C180.538 215.49 180.36 215.444 180.22 215.525C180.08 215.605 180.032 215.783 180.111 215.921ZM179.394 213.767C179.45 213.864 179.561 213.924 179.681 213.908C179.841 213.887 179.955 213.742 179.936 213.584C179.824 212.634 179.967 211.662 180.352 210.774C180.39 210.687 180.382 210.592 180.338 210.516C180.308 210.464 180.261 210.42 180.2 210.395C180.052 210.333 179.882 210.403 179.818 210.551C179.392 211.533 179.233 212.607 179.358 213.659C179.363 213.699 179.375 213.735 179.394 213.767ZM177.105 191.484C174.958 187.766 176.165 183.036 179.796 180.94C183.426 178.844 188.126 180.164 190.272 183.881C192.418 187.599 191.211 192.329 187.581 194.425C183.951 196.52 179.251 195.201 177.105 191.484ZM185.062 203.823L185.236 196.455C186.239 196.292 187.229 195.96 188.158 195.423C189.027 194.921 189.768 194.283 190.388 193.558C190.414 193.589 190.444 193.616 190.481 193.635L196.989 196.924C195.445 199.521 195.291 202.866 196.828 205.733L192.764 208.08L191.899 206.581L195.697 204.389C195.837 204.308 195.886 204.13 195.806 203.993C195.726 203.855 195.548 203.808 195.409 203.889L191.357 206.228C191.331 206.243 191.313 206.264 191.293 206.285C189.59 204.668 187.34 203.799 185.062 203.823ZM178.592 190.588C180.246 193.453 183.954 194.418 186.859 192.741C189.764 191.064 190.782 187.37 189.129 184.505C187.475 181.64 183.766 180.674 180.861 182.351C180.721 182.432 180.672 182.609 180.752 182.747C180.831 182.885 181.01 182.932 181.149 182.851C183.775 181.335 187.127 182.208 188.622 184.797C190.117 187.386 189.196 190.726 186.571 192.241C183.946 193.757 180.593 192.885 179.099 190.296C179.019 190.158 178.841 190.112 178.701 190.192C178.562 190.273 178.513 190.45 178.592 190.588ZM177.875 188.435C177.931 188.532 178.042 188.592 178.162 188.576C178.322 188.555 178.437 188.409 178.418 188.251C178.305 187.301 178.448 186.329 178.833 185.441C178.871 185.353 178.863 185.259 178.819 185.183C178.789 185.131 178.742 185.087 178.682 185.062C178.534 185 178.362 185.07 178.298 185.218C177.872 186.199 177.714 187.275 177.839 188.327C177.844 188.366 177.856 188.402 177.875 188.435ZM197.972 205.406C195.826 201.688 197.033 196.958 200.663 194.862C204.293 192.766 208.993 194.086 211.14 197.803C213.286 201.521 212.079 206.251 208.449 208.347C204.818 210.443 200.119 209.123 197.972 205.406ZM199.225 204.885C200.879 207.75 204.588 208.716 207.493 207.039C210.398 205.361 211.415 201.667 209.762 198.802C208.108 195.937 204.399 194.972 201.495 196.649C201.355 196.73 201.306 196.907 201.385 197.045C201.465 197.183 201.643 197.229 201.783 197.149C204.408 195.633 207.76 196.505 209.255 199.094C210.75 201.683 209.83 205.023 207.204 206.539C204.579 208.055 201.226 207.182 199.732 204.593C199.652 204.455 199.474 204.408 199.334 204.489C199.195 204.57 199.146 204.747 199.225 204.885ZM198.508 202.732C198.564 202.829 198.675 202.889 198.795 202.873C198.955 202.852 199.07 202.706 199.051 202.548C198.939 201.598 199.081 200.627 199.467 199.738C199.504 199.651 199.496 199.556 199.452 199.48C199.422 199.428 199.375 199.384 199.315 199.359C199.167 199.297 198.996 199.368 198.932 199.515C198.506 200.498 198.347 201.572 198.472 202.624C198.477 202.663 198.49 202.699 198.508 202.732Z" fill="#B249F8" fill-opacity="0.16"/>
<path d="M65.7199 14.7553C58.9823 10.4789 50.0871 12.379 45.8906 18.9907C41.777 25.4718 43.6945 34.0995 50.1176 38.4663L46.0328 44.9019C39.3473 40.9486 30.7241 42.8862 26.6105 49.3672C22.4141 55.9789 24.4811 64.8368 31.2188 69.1133C37.9564 73.3897 46.8516 71.4895 51.0481 64.8778C52.192 63.0755 52.8555 61.1062 53.1009 59.1084L64.51 58.9511L64.3616 62.0503L55.8721 61.7456C55.6137 61.7363 55.3946 61.9411 55.3821 62.2012C55.3737 62.3764 55.4607 62.5314 55.597 62.618C55.6633 62.66 55.7429 62.6843 55.8288 62.6884L64.7854 63.0092C64.8385 63.0109 64.891 63.0007 64.941 62.9853C65.4663 67.1133 67.7808 71.0125 71.6028 73.4383C78.3405 77.7147 87.2357 75.8146 91.4322 69.2029C95.6286 62.5912 93.5616 53.7333 86.8239 49.4569C83.1156 47.1032 78.7568 46.6308 74.8844 47.775L71.3971 41.0015C71.2784 40.7703 70.9956 40.6834 70.7651 40.8062C70.535 40.9282 70.4446 41.2146 70.5629 41.4445L73.981 48.0821C73.0076 48.4416 72.0725 48.9023 71.1951 49.47L65.9486 38.8356C67.6653 37.7612 69.1771 36.3149 70.3282 34.5013C74.5246 27.8896 72.4576 19.0317 65.7199 14.7553ZM64.7052 16.3541C70.5734 20.0786 72.3884 27.7707 68.7515 33.5006C65.1147 39.2306 57.3817 40.8625 51.5136 37.138C45.6454 33.4134 43.8304 25.7214 47.4672 19.9914C51.104 14.2614 58.837 12.6295 64.7052 16.3541ZM63.1668 18.2469C58.6451 15.3769 52.599 16.7724 49.6888 21.3576C46.7785 25.9429 48.0894 32.0078 52.6112 34.8778C57.1329 37.7478 63.1782 36.3518 66.0877 31.7661C66.2278 31.5455 66.1648 31.2543 65.9473 31.1162C65.7297 30.9781 65.4394 31.0451 65.2994 31.2657C62.6692 35.4097 57.2051 36.6722 53.1185 34.0784C49.032 31.4846 47.8469 26.002 50.4771 21.858C53.1073 17.714 58.5729 16.4525 62.6595 19.0463C62.877 19.1844 63.1673 19.1174 63.3073 18.8968C63.4473 18.6761 63.3844 18.385 63.1668 18.2469ZM65.8107 20.7989C65.6573 20.7015 65.4531 20.6991 65.2928 20.8118C65.0796 20.9613 65.0243 21.2552 65.1702 21.4678C66.0446 22.7472 66.5671 24.249 66.6806 25.8125C66.6919 25.9655 66.7753 26.0961 66.8951 26.1721C66.9771 26.2242 67.0778 26.2516 67.1838 26.2414C67.4422 26.2193 67.6342 25.9911 67.6155 25.7314C67.4895 24.0029 66.9118 22.3422 65.9434 20.9269C65.9071 20.8738 65.8619 20.8314 65.8107 20.7989ZM85.8092 51.0556C91.6773 54.7802 93.4924 62.4722 89.8555 68.2022C86.2187 73.9322 78.4857 75.5641 72.6176 71.8396C66.7494 68.115 64.9344 60.423 68.5712 54.693C72.208 48.963 79.941 47.3311 85.8092 51.0556ZM65.1365 39.3188L70.4135 50.0209C69.0958 51.0076 67.925 52.2264 66.9946 53.6923C66.1234 55.0649 65.5384 56.5368 65.1929 58.0419C65.1333 58.0162 65.0688 58.0011 65.0023 58.002L53.197 58.164C53.4649 53.2783 51.1771 48.3637 46.8211 45.4023L50.893 38.9869L53.2579 40.4879L49.4526 46.4833C49.3126 46.7039 49.3755 46.9951 49.5931 47.1332C49.8107 47.2713 50.1009 47.2043 50.2409 46.9837L54.2999 40.5886C54.3257 40.5479 54.3368 40.5041 54.3491 40.46C58.0051 41.5016 61.8858 41.0612 65.1365 39.3188ZM84.346 53.4561C79.8243 50.5862 73.7798 51.9826 70.8695 56.5679C67.9592 61.1531 69.2686 67.2171 73.7904 70.087C78.3121 72.957 84.3582 71.5616 87.2685 66.9763C87.4085 66.7557 87.3456 66.4646 87.128 66.3265C86.9104 66.1884 86.6202 66.2553 86.4801 66.476C83.8499 70.62 78.3843 71.8814 74.2977 69.2877C70.2111 66.6939 69.0276 61.2122 71.6578 57.0682C74.288 52.9242 79.7521 51.6618 83.8387 54.2555C84.0562 54.3936 84.3465 54.3266 84.4865 54.106C84.6265 53.8854 84.5636 53.5942 84.346 53.4561ZM86.9899 56.0082C86.8364 55.9107 86.6323 55.9084 86.472 56.0211C86.2588 56.1706 86.2025 56.466 86.3484 56.6786C87.2241 57.9577 87.7473 59.46 87.8613 61.0228C87.8721 61.1765 87.9545 61.3053 88.0743 61.3814C88.1571 61.4339 88.2565 61.4616 88.362 61.4522C88.6204 61.4301 88.815 61.2013 88.7963 60.9416C88.671 59.2136 88.091 57.5515 87.1226 56.1361C87.0863 56.0831 87.0411 56.0406 86.9899 56.0082ZM45.4251 46.7306C51.2933 50.4551 53.1083 58.1472 49.4715 63.8771C45.8347 69.6071 38.1017 71.239 32.2335 67.5145C26.3654 63.79 24.5503 56.0979 28.1872 50.3679C31.824 44.638 39.557 43.006 45.4251 46.7306ZM44.0176 48.4173C39.4959 45.5474 33.4498 46.9428 30.5395 51.528C27.6292 56.1133 28.9402 62.1783 33.4619 65.0482C37.9837 67.9182 44.029 66.5223 46.9385 61.9365C47.0785 61.7159 47.0156 61.4247 46.798 61.2867C46.5804 61.1486 46.2902 61.2155 46.1502 61.4362C43.52 65.5802 38.0559 66.8426 33.9693 64.2488C29.8827 61.6551 28.6976 56.1724 31.3278 52.0284C33.958 47.8844 39.4236 46.6229 43.5102 49.2167C43.7278 49.3548 44.018 49.2878 44.1581 49.0672C44.2981 48.8466 44.2352 48.5554 44.0176 48.4173ZM46.6615 50.9693C46.508 50.8719 46.3038 50.8695 46.1436 50.9823C45.9303 51.1318 45.874 51.4271 46.02 51.6398C46.8944 52.9192 47.4178 54.4194 47.5313 55.983C47.5426 56.1359 47.6261 56.2665 47.7459 56.3426C47.8279 56.3946 47.9281 56.4227 48.0335 56.4134C48.292 56.3913 48.485 56.1615 48.4663 55.9018C48.3402 54.1733 47.7625 52.5126 46.7941 51.0973C46.7578 51.0443 46.7127 51.0018 46.6615 50.9693Z" fill="#B249F8" fill-opacity="0.16"/>
</g>
</svg>
